# xmcd CD database file
#
# Track frame offsets:
#	150
#	21318
#	41944
#	54698
#	69673
#
# Disc length: 1166 seconds
#
# Revision: 0
# Processed by: cddbd v1.5.1PL2 Copyright (c) Steve Scherf et al.
# Submitted via: CDex 1.51
#
DISCID=48048c05
DTITLE=Quiet Life - HOME WORK
DYEAR=2002
DGENRE=JPop
TTITLE0=July
TTITLE1=Singing fish
TTITLE2=春香
TTITLE3=BUTTER
TTITLE4=ラブレター
EXTD=YEAR: 2002
EXTT0=
EXTT1=
EXTT2=
EXTT3=
EXTT4=
PLAYORDER=
